<?xml version="1.0" encoding="UTF-8" standalone="no"?>
<!DOCTYPE svg PUBLIC "-//W3C//DTD SVG 1.1//EN"
 "http://www.w3.org/Graphics/SVG/1.1/DTD/svg11.dtd">
<!-- Generated by graphviz version 2.47.0 (20210316.0004)
 -->
<!-- Title: dependencies Pages: 1 -->
<svg width="510pt" height="284pt"
 viewBox="0.00 0.00 510.00 284.00" xmlns="http://www.w3.org/2000/svg" xmlns:xlink="http://www.w3.org/1999/xlink">
<g id="graph0" class="graph" transform="scale(1 1) rotate(0) translate(4 280)">
<title>dependencies</title>
<polygon fill="white" stroke="transparent" points="-4,4 -4,-280 506,-280 506,4 -4,4"/>
<text text-anchor="start" x="230.01" y="-42.4" font-family="Times-12" font-weight="bold" font-size="14.00">Legend</text>
<polygon fill="#ffffb3" stroke="transparent" points="17,-10 17,-30 37,-30 37,-10 17,-10"/>
<text text-anchor="start" x="40.63" y="-15.4" font-family="Times-12" font-size="14.00"> &#160;Declarations</text>
<polygon fill="#8dd3c7" stroke="transparent" points="130,-10 130,-30 150,-30 150,-10 130,-10"/>
<text text-anchor="start" x="153.73" y="-15.4" font-family="Times-12" font-size="14.00"> &#160;Module</text>
<polygon fill="#80b1d3" stroke="transparent" points="216,-10 216,-30 236,-30 236,-10 216,-10"/>
<text text-anchor="start" x="239.78" y="-15.4" font-family="Times-12" font-size="14.00"> &#160;Bootstrap</text>
<polygon fill="#fdb462" stroke="transparent" points="313,-10 313,-30 333,-30 333,-10 313,-10"/>
<text text-anchor="start" x="336.67" y="-15.4" font-family="Times-12" font-size="14.00"> &#160;Providers</text>
<polygon fill="#fb8072" stroke="transparent" points="409,-10 409,-30 429,-30 429,-10 409,-10"/>
<text text-anchor="start" x="432.73" y="-15.4" font-family="Times-12" font-size="14.00"> &#160;Exports</text>
<g id="clust1" class="cluster">
<title>cluster_OrderModule</title>
<polygon fill="none" stroke="black" stroke-dasharray="1,5" points="8,-70 8,-268 494,-268 494,-70 8,-70"/>
</g>
<g id="clust6" class="cluster">
<title>cluster_OrderModule_providers</title>
<polygon fill="none" stroke="black" points="144,-78 144,-130 486,-130 486,-78 144,-78"/>
</g>
<g id="clust4" class="cluster">
<title>cluster_OrderModule_exports</title>
<polygon fill="none" stroke="black" points="188,-208 188,-260 298,-260 298,-208 188,-208"/>
</g>
<g id="clust3" class="cluster">
<title>cluster_OrderModule_imports</title>
<polygon fill="none" stroke="black" points="16,-78 16,-130 136,-130 136,-78 16,-78"/>
</g>
<!-- ProductModule -->
<g id="node1" class="node">
<title>ProductModule</title>
<polygon fill="#8dd3c7" stroke="black" points="127.6,-122 124.6,-126 103.6,-126 100.6,-122 24.4,-122 24.4,-86 127.6,-86 127.6,-122"/>
<text text-anchor="middle" x="76" y="-99.8" font-family="Times,serif" font-size="14.00">ProductModule</text>
</g>
<!-- OrderModule -->
<g id="node2" class="node">
<title>OrderModule</title>
<polygon fill="#8dd3c7" stroke="black" points="289.19,-187 286.19,-191 265.19,-191 262.19,-187 196.81,-187 196.81,-151 289.19,-151 289.19,-187"/>
<text text-anchor="middle" x="243" y="-164.8" font-family="Times,serif" font-size="14.00">OrderModule</text>
</g>
<!-- ProductModule&#45;&gt;OrderModule -->
<g id="edge1" class="edge">
<title>ProductModule&#45;&gt;OrderModule</title>
<path fill="none" stroke="black" d="M76,-122.11C76,-141.34 76,-169 76,-169 76,-169 186.48,-169 186.48,-169"/>
<polygon fill="black" stroke="black" points="186.48,-172.5 196.48,-169 186.48,-165.5 186.48,-172.5"/>
</g>
<!-- OrderService  -->
<g id="node3" class="node">
<title>OrderService </title>
<polygon fill="#fb8072" stroke="black" points="290.12,-252 195.88,-252 195.88,-216 290.12,-216 290.12,-252"/>
<text text-anchor="middle" x="243" y="-229.8" font-family="Times,serif" font-size="14.00">OrderService </text>
</g>
<!-- OrderModule&#45;&gt;OrderService  -->
<g id="edge2" class="edge">
<title>OrderModule&#45;&gt;OrderService </title>
<path fill="none" stroke="black" stroke-dasharray="5,2" d="M243,-187.11C243,-187.11 243,-205.99 243,-205.99"/>
<polygon fill="black" stroke="black" points="239.5,-205.99 243,-215.99 246.5,-205.99 239.5,-205.99"/>
</g>
<!-- OrderService -->
<g id="node4" class="node">
<title>OrderService</title>
<ellipse fill="#fdb462" stroke="black" cx="415" cy="-104" rx="62.52" ry="18"/>
<text text-anchor="middle" x="415" y="-99.8" font-family="Times,serif" font-size="14.00">OrderService</text>
</g>
<!-- OrderService&#45;&gt;OrderModule -->
<g id="edge3" class="edge">
<title>OrderService&#45;&gt;OrderModule</title>
<path fill="none" stroke="black" d="M415,-122.11C415,-141.34 415,-169 415,-169 415,-169 299.55,-169 299.55,-169"/>
<polygon fill="black" stroke="black" points="299.55,-165.5 289.55,-169 299.55,-172.5 299.55,-165.5"/>
</g>
<!-- ValidateCartHandler -->
<g id="node5" class="node">
<title>ValidateCartHandler</title>
<ellipse fill="#fdb462" stroke="black" cx="243" cy="-104" rx="91.45" ry="18"/>
<text text-anchor="middle" x="243" y="-99.8" font-family="Times,serif" font-size="14.00">ValidateCartHandler</text>
</g>
<!-- ValidateCartHandler&#45;&gt;OrderModule -->
<g id="edge4" class="edge">
<title>ValidateCartHandler&#45;&gt;OrderModule</title>
<path fill="none" stroke="black" d="M243,-122.11C243,-122.11 243,-140.99 243,-140.99"/>
<polygon fill="black" stroke="black" points="239.5,-140.99 243,-150.99 246.5,-140.99 239.5,-140.99"/>
</g>
</g>
</svg>
